<svg xmlns="http://www.w3.org/2000/svg" viewBox="0 0 303.92 299.11"><defs><style>.cls-1{fill:#56aecb;}.cls-2{fill:#3379ab;}.cls-3{fill:#fff;}</style></defs><g id="레이어_2" data-name="레이어 2"><g id="Layer_1" data-name="Layer 1"><path class="cls-1" d="M0,162.56V141.79c1.15-2.39.79-5,1.13-7.52,5.44-40.18,23-74,54.71-99.34C102.05-2,153.8-9.71,208.5,12.05,256.89,31.3,286.87,68,299.83,118.41A122.25,122.25,0,0,1,303,138.55c.8,9.35,1.48,18.66.22,28a52.64,52.64,0,0,1-2.3,11c-2.15,4.3-3,9.09-5.22,13.4-2.75,5.44-4.93,11.17-8.21,16.34A195.63,195.63,0,0,1,268,233.52c-1.09,1.22-1.66,2.86-3,4-4.81,4-9.07,8.69-14.12,12.48s-9.46,8-14.68,11.25a169.21,169.21,0,0,1-22.25,12,162.94,162.94,0,0,1-40.68,11.14,152.58,152.58,0,0,1-39,.53,142,142,0,0,1-26.11-5c-9-2.76-17.54-7-26-11.26A156.27,156.27,0,0,1,55.24,251a158.09,158.09,0,0,1-18.5-17.92,161,161,0,0,1-24.29-35.58c-4.3-8.48-6.92-17.63-9.29-26.85-.61-2.37-.63-5.09-2.61-7ZM213.1,263.91c4.07,0,7.63-1.66,11.19-3.38a48.83,48.83,0,0,0,21.92-20.41c1.83-3.27,3.21-7.18,1-10.38-2.36-3.44-6.54-2.6-10.14-1.75-12.2,2.87-20.91,10.61-28.09,20.4a16.82,16.82,0,0,0-2.81,7.42C205.31,261.23,207.64,263.89,213.1,263.91ZM60.54,62.19c-.08,5,3.2,8,8.46,6.79,15.48-3.45,26.45-12.57,32.32-27.39,1.76-4.44-1.1-8.05-5.89-8.25a17.5,17.5,0,0,0-6.69,1C79,37.79,71.52,44.22,65.1,52,62.64,55,60.42,58.2,60.54,62.19Zm61.11-28.61a6.56,6.56,0,0,0-6.62-6.8c-4.25-.13-7.34,2.87-7.54,7.34-.16,3.62,3,6.56,7.15,6.61S121.54,37.82,121.65,33.58Zm69,236.51c4,.15,6.59-2.71,6.75-7.33.11-3.43-3.06-6.22-7.2-6.33a6.16,6.16,0,0,0-6.7,6.14C183.34,267.23,185.88,269.91,190.67,270.09Z"/><path class="cls-2" d="M138.93,299.11c-3-1.28-6.3-1.15-9.46-1.62A150.49,150.49,0,0,1,64,271.43C32.48,249.15,12,219.23,3,181.64c-1.42-5.9-2.62-11.85-2.45-18,2,1.91,2,4.63,2.61,7,2.37,9.22,5,18.37,9.29,26.85a161,161,0,0,0,24.29,35.58A158.09,158.09,0,0,0,55.24,251,156.27,156.27,0,0,0,82.17,268.6c8.47,4.26,17,8.5,26,11.26a142,142,0,0,0,26.11,5,152.58,152.58,0,0,0,39-.53,162.94,162.94,0,0,0,40.68-11.14,169.21,169.21,0,0,0,22.25-12c5.22-3.21,9.74-7.55,14.68-11.25s9.31-8.44,14.12-12.48c1.34-1.12,1.91-2.76,3-4a195.63,195.63,0,0,0,19.51-26.23c3.28-5.17,5.46-10.9,8.21-16.34,2.18-4.31,5.37-20.14,7.52-24.44.49,1.94-2.57,14.78-3.08,16.55q-27.25,94.41-123.56,114c-4.22.86-8.58.73-12.72,2Z"/><path class="cls-3" d="M213.1,263.91c-5.46,0-7.79-2.68-6.91-8.1a16.82,16.82,0,0,1,2.81-7.42c7.18-9.79,15.89-17.53,28.09-20.4,3.6-.85,7.78-1.69,10.14,1.75,2.19,3.2.81,7.11-1,10.38a48.83,48.83,0,0,1-21.92,20.41C220.73,262.25,217.17,263.9,213.1,263.91Z"/><path class="cls-3" d="M60.54,62.19c-.12-4,2.1-7.16,4.56-10.15C71.52,44.22,79,37.79,88.74,34.34a17.5,17.5,0,0,1,6.69-1c4.79.2,7.65,3.81,5.89,8.25C95.45,56.41,84.48,65.53,69,69,63.74,70.15,60.46,67.22,60.54,62.19Z"/><path class="cls-3" d="M121.65,33.58c-.11,4.24-3,7.2-7,7.15s-7.31-3-7.15-6.61c.2-4.47,3.29-7.47,7.54-7.34A6.56,6.56,0,0,1,121.65,33.58Z"/><path class="cls-3" d="M190.67,270.09c-4.79-.18-7.33-2.86-7.15-7.52a6.16,6.16,0,0,1,6.7-6.14c4.14.11,7.31,2.9,7.2,6.33C197.26,267.38,194.63,270.24,190.67,270.09Z"/><path class="cls-3" d="M212.8,191.74l2.18,2.14a8.61,8.61,0,0,0,12.2-.08L259.5,161a8.64,8.64,0,0,0-6.2-14.71l-21.16.15a80.57,80.57,0,1,0-80,81.65,11.53,11.53,0,0,0-.17-23.05,57.55,57.55,0,1,1,57.14-58.46l-20.93.17a8.64,8.64,0,0,0-6,14.79Z"/></g></g></svg>