<svg xmlns="http://www.w3.org/2000/svg" viewBox="0 0 161.09 178.33"><defs><style>.cls-1{fill:#67bdd1;}.cls-2{fill:#cfe8f1;}</style></defs><g id="레이어_2" data-name="레이어 2"><g id="Layer_1" data-name="Layer 1"><path class="cls-1" d="M113.37,24.21a80.56,80.56,0,1,1-91,17.9A80.92,80.92,0,0,0,51.26,67,87.73,87.73,0,0,1,84.07,0a80.2,80.2,0,0,0,29.29,24.21Z"/><path class="cls-2" d="M80.54,153.64a54.9,54.9,0,0,0,55-54.8c0-27.58-23-55.4-50.33-59C70.08,53.37,62.71,76.2,59.61,96.25A87.49,87.49,0,0,1,28.39,81.6a54.89,54.89,0,0,0,52.15,72Z"/></g></g></svg>