<svg xmlns="http://www.w3.org/2000/svg" viewBox="0 0 161.1 74.51"><defs><style>.cls-1{fill:#f5d533;}</style></defs><g id="레이어_2" data-name="레이어 2"><g id="Layer_1" data-name="Layer 1"><path class="cls-1" d="M26.19,32.22a3.64,3.64,0,0,1-.78,2.94,7.74,7.74,0,0,1-2.71,2.05A15.12,15.12,0,0,1,19,38.41a15.3,15.3,0,0,1-3.64.31A16.59,16.59,0,0,1,11.71,38,18,18,0,0,1,8.07,36.5a18.38,18.38,0,0,1-3.31-2.34,16.77,16.77,0,0,1-2.69-3,11,11,0,0,1-1.79-4.4,19,19,0,0,1-.21-4.89,27.22,27.22,0,0,1,.87-4.93c.43-1.6.91-3.1,1.41-4.48A20,20,0,0,1,4.26,8.67,20.87,20.87,0,0,1,7.14,5.1a20.59,20.59,0,0,1,3.74-2.93A15.42,15.42,0,0,1,15.4.32a11.05,11.05,0,0,1,4-.25,16.92,16.92,0,0,1,4.07,1,14.82,14.82,0,0,1,3.63,2,9.85,9.85,0,0,1,2.6,2.77,12.13,12.13,0,0,1,1.16,2.51,9.74,9.74,0,0,1,.57,3,4.19,4.19,0,0,1-.69,2.52,2.71,2.71,0,0,1-2.54,1,2.68,2.68,0,0,1-1.32-.29,3,3,0,0,1-.9-.76,5.47,5.47,0,0,1-.65-1c-.19-.39-.36-.77-.51-1.15a6.51,6.51,0,0,0-2.32-2.86,6.93,6.93,0,0,0-3.21-1.2A7.59,7.59,0,0,0,15.82,8a7.42,7.42,0,0,0-3,2.09,20,20,0,0,0-2.41,3.48,21.35,21.35,0,0,0-1.75,4.09,17.82,17.82,0,0,0-.79,4.27,10.19,10.19,0,0,0,.51,4,6.93,6.93,0,0,0,1.47,2.59,8.3,8.3,0,0,0,2.3,1.83,8,8,0,0,0,2.79.9,8.41,8.41,0,0,0,3-.14,5.27,5.27,0,0,0,1.08-.34l1.23-.51c.43-.18.85-.34,1.28-.48a4,4,0,0,1,1.31-.19,3.34,3.34,0,0,1,2,.63A3,3,0,0,1,26.19,32.22Z"/><path class="cls-1" d="M45.87,9a16.31,16.31,0,0,1,6.6.64,11.72,11.72,0,0,1,4.64,2.86A12.6,12.6,0,0,1,60,16.93a19.69,19.69,0,0,1,1.21,5.49,23.81,23.81,0,0,1,0,4.47,29.44,29.44,0,0,1-.74,4.46,28.22,28.22,0,0,1-1.35,4.17,23.53,23.53,0,0,1-1.83,3.62,17.33,17.33,0,0,1-1.34,2,21.69,21.69,0,0,1-1.54,1.68A11.58,11.58,0,0,1,50,45.47a14.48,14.48,0,0,1-8.55.11,15.11,15.11,0,0,1-6.25-3.67,12.88,12.88,0,0,1-2.27-3,14,14,0,0,1-1.61-4.35,20.89,20.89,0,0,1-.39-4.75,26.69,26.69,0,0,1,.56-4.73,33,33,0,0,1,1.23-4.34,24.33,24.33,0,0,1,1.91-3.88,19.4,19.4,0,0,1,2.93-3.69,17.07,17.07,0,0,1,3.8-2.86A11,11,0,0,1,45.87,9Zm5.82,25.57a20.37,20.37,0,0,0,2.07-5.34,21.65,21.65,0,0,0,.65-6,13.06,13.06,0,0,0-.6-3.32,6.17,6.17,0,0,0-1.46-2.51,5.59,5.59,0,0,0-2.53-1.45,8.4,8.4,0,0,0-3.73-.05,6.11,6.11,0,0,0-2.38,1,8.66,8.66,0,0,0-1.92,1.86,15.92,15.92,0,0,0-1.51,2.37,16.88,16.88,0,0,0-1.07,2.48,24.36,24.36,0,0,0-.85,2.81,19.28,19.28,0,0,0-.5,3,16.12,16.12,0,0,0,0,3,8.4,8.4,0,0,0,.72,2.74,7.43,7.43,0,0,0,2.52,3,6.61,6.61,0,0,0,3.5,1.18A6.47,6.47,0,0,0,50,36.86,9.79,9.79,0,0,0,51.69,34.54Z"/><path class="cls-1" d="M93,56.55c-.15.4-.32.82-.52,1.25a4.67,4.67,0,0,1-.71,1.14,2.35,2.35,0,0,1-.94.74,2.31,2.31,0,0,1-1.51.19,3,3,0,0,1-1.44-.25,4.81,4.81,0,0,1-1.13-.71A3,3,0,0,1,86,57.5,5.47,5.47,0,0,1,85.9,56a7,7,0,0,1,.27-1.55L86.58,53l1.14-4L89.92,41l.37-1.29.24-.86c.07-.25.15-.55.22-.88s.2-.81.38-1.43c0-.11.09-.28.18-.54s.26-1,.52-2.11c-2,1.86-3.61,3.34-4.87,4.45a38.48,38.48,0,0,1-3.12,2.53,6.71,6.71,0,0,1-2,1.05,3.27,3.27,0,0,1-1.52,0,1.42,1.42,0,0,1-.78-.39,4.3,4.3,0,0,1-.66-.74,8.65,8.65,0,0,1-.54-.85A4.6,4.6,0,0,1,78,39.2c-.53-1.26-1.11-2.77-1.73-4.51a47.43,47.43,0,0,1-1.71-6.19L74,30.2q-.49,1.65-1.2,4.11c-.46,1.63-1,3.39-1.52,5.26s-1.06,3.63-1.54,5.24-.89,3-1.23,4a8.72,8.72,0,0,1-.57,1.6A3.41,3.41,0,0,1,67.09,52a3.65,3.65,0,0,1-1.46.9,3.33,3.33,0,0,1-1.78.06A4.2,4.2,0,0,1,62,51.83a2.69,2.69,0,0,1-.67-1.48,7,7,0,0,1,0-1.57c.11-.5.21-1,.32-1.42s.24-.92.37-1.41l1.2-4,2.31-8,2-6.93q1.27-4.5,2.82-8.75a4.55,4.55,0,0,1,.43-1,6.38,6.38,0,0,1,.61-.86,3.09,3.09,0,0,1,1.44-.93,3.17,3.17,0,0,1,1.78,0l.69.23a5.93,5.93,0,0,1,.63.26,3,3,0,0,1,1.44,1.72,22.7,22.7,0,0,0,.93,2.14,13.05,13.05,0,0,1,.56,1.38c.18.54.36,1.09.53,1.66s.33,1.12.48,1.65.28,1,.39,1.4c.49,1.7.91,3.25,1.27,4.66s.74,2.63,1.12,3.67a3.72,3.72,0,0,0,.48-.34l.62-.49c.22-.18.42-.36.6-.53l.43-.44,1.49-1.33,1.6-1.4c.57-.49,1.17-1,1.81-1.63S91,26.8,91.83,26c.36-.35.81-.76,1.35-1.24A15.05,15.05,0,0,1,95,23.46a10.7,10.7,0,0,1,1.93-1,2.84,2.84,0,0,1,1.8-.13,6.16,6.16,0,0,1,.72.23l.59.25a2.08,2.08,0,0,1,1,.91,3,3,0,0,1,.37,1.06,7.16,7.16,0,0,1-.06,1.21c0,.25-.07.48-.11.69s-.09.42-.15.63q-.83,2.89-1.58,5.75c-.51,1.91-1,3.83-1.58,5.76-.66,2.35-1.34,4.76-2,7.25s-1.36,4.9-2,7.25c-.14.48-.26,1-.39,1.56A13.15,13.15,0,0,1,93,56.55Z"/><path class="cls-1" d="M123.48,48.6a11.35,11.35,0,0,1,1.91,3,10.37,10.37,0,0,1,.76,3.71,15,15,0,0,1-.51,4.46,9.94,9.94,0,0,1-1.9,3.77,8.71,8.71,0,0,1-3.45,2.48,11,11,0,0,1-5.08.66,28.42,28.42,0,0,1-3.68-.43,36.62,36.62,0,0,1-3.67-.82c-1.36-.35-2.75-.73-4.17-1.16a22.13,22.13,0,0,1-4-1.62,2.14,2.14,0,0,1-1-1.26,4.61,4.61,0,0,1-.13-1.63,2.33,2.33,0,0,1,.06-1l8.34-29.38a3.83,3.83,0,0,1,1.23-2.08,3.68,3.68,0,0,1,1.91-.74,7.44,7.44,0,0,1,2.36.16q1.26.27,2.61.66l2.1.57c.71.18,1.43.39,2.14.63,1.13.36,2.28.79,3.46,1.29A16.12,16.12,0,0,1,126,31.76,11.2,11.2,0,0,1,127.42,33a4,4,0,0,1,1.1,1.43A9.85,9.85,0,0,1,130,38.57a9.67,9.67,0,0,1-.45,4.23,9.24,9.24,0,0,1-2.22,3.59A8.27,8.27,0,0,1,123.48,48.6ZM110.54,59.74c1.09.23,2.21.42,3.36.56a3.82,3.82,0,0,0,2.56-.34A5.23,5.23,0,0,0,118,58.3a6.76,6.76,0,0,0,.81-2.24,6.52,6.52,0,0,0,0-2.41,4.76,4.76,0,0,0-.94-2.09,6.49,6.49,0,0,0-2.4-2,17.49,17.49,0,0,0-3-1.15c-.48-.14-.92-.25-1.32-.35a5.16,5.16,0,0,0-1.08-.14,1.15,1.15,0,0,0-.79.31,2.24,2.24,0,0,0-.51,1,18,18,0,0,1-.77,2.69c-.32.88-.6,1.73-.83,2.56-.14.48-.3,1-.48,1.57a1.91,1.91,0,0,0,.14,1.57,3.23,3.23,0,0,0,1.44,1.25A11,11,0,0,0,110.54,59.74Zm8.08-24.54L116,34.37a5.53,5.53,0,0,0-1.7-.31,1.26,1.26,0,0,0-1,.54,4.93,4.93,0,0,0-.68,1.73c-.19.66-.38,1.3-.58,1.93s-.39,1.26-.56,1.88a1.82,1.82,0,0,0,.24,1.72,3.45,3.45,0,0,0,1.51,1.07,11.15,11.15,0,0,0,2.12.6c.76.15,1.43.24,2,.3a5.56,5.56,0,0,0,3.23-.46,4.33,4.33,0,0,0,2-2.49q.87-2.27-.3-3.57A8,8,0,0,0,118.62,35.2Z"/><path class="cls-1" d="M145.69,37.3a16.34,16.34,0,0,1,6.61.64,11.72,11.72,0,0,1,4.64,2.86,12.74,12.74,0,0,1,2.84,4.46A20.13,20.13,0,0,1,161,50.75a24.69,24.69,0,0,1,0,4.47,29.44,29.44,0,0,1-.74,4.46,28.74,28.74,0,0,1-1.35,4.18,23.88,23.88,0,0,1-1.84,3.61,17.33,17.33,0,0,1-1.34,2,17.1,17.1,0,0,1-1.54,1.68,11.54,11.54,0,0,1-4.36,2.68,14.52,14.52,0,0,1-8.56.11A15.29,15.29,0,0,1,135,70.24a13.12,13.12,0,0,1-2.26-3,13.74,13.74,0,0,1-1.62-4.35,21.47,21.47,0,0,1-.38-4.75,25.79,25.79,0,0,1,.56-4.73,31.52,31.52,0,0,1,1.23-4.34,23.51,23.51,0,0,1,1.91-3.88,19.35,19.35,0,0,1,2.92-3.69,17.3,17.3,0,0,1,3.8-2.86A11.14,11.14,0,0,1,145.69,37.3Zm5.82,25.57a20.09,20.09,0,0,0,2.08-5.33,21.37,21.37,0,0,0,.64-6,12.64,12.64,0,0,0-.59-3.32,6.3,6.3,0,0,0-1.47-2.51,5.61,5.61,0,0,0-2.52-1.45,8.4,8.4,0,0,0-3.73,0,6,6,0,0,0-2.38,1A8.66,8.66,0,0,0,141.62,47a16,16,0,0,0-1.52,2.37A16.88,16.88,0,0,0,139,51.89a29.07,29.07,0,0,0-.85,2.81,20.51,20.51,0,0,0-.5,3,17,17,0,0,0,0,3,8.67,8.67,0,0,0,.73,2.74,7.28,7.28,0,0,0,2.52,3,6.61,6.61,0,0,0,3.49,1.18,6.49,6.49,0,0,0,5.42-2.54A9.76,9.76,0,0,0,151.51,62.87Z"/></g></g></svg>