<svg xmlns="http://www.w3.org/2000/svg" viewBox="0 0 157.72 158.14"><defs><style>.cls-1{fill:#f4e267;}.cls-2{fill:#ecbb39;}.cls-3{fill:#fbf9e0;}</style></defs><g id="레이어_2" data-name="레이어 2"><g id="Layer_1" data-name="Layer 1"><path class="cls-1" d="M1.09,84.15C-1.52,74.43,1,65.06,4,56.09,12.37,31,28.74,12.36,54.05,4.28c18.29-5.83,37.32-6.23,56,2.07,24.62,11,39.2,29.67,46.1,55.08,2.12,7.81,1.63,15.83,1.34,23.8l-15-.12c-1.36-1.46-2.73-3.45-4,0-7.41.57-14.68-.78-22-1.49,0-6.34,0-12.67-.16-19,0-1.63.8-4.47-1.52-4.54-2.67-.08-2.29,2.83-2.33,4.77-.18,7.68-.28,15.37-.4,23l-4.76.12q.39-14.34.77-28.68c.06-2.64-.51-5.07-3-6.41a3.61,3.61,0,0,0-2.48.19c-.2.06-.28,1.21-.07,1.72,3.92,9.47,1.44,19.31,1.74,29-2.48,1.64.24,5.8-3.35,6.91-.09-10-.14-20-.28-30,0-1.92.44-4.49-3-4-9.06,1.38-18.16.13-27.24.58-11.59.57-11.59.51-14.11,11.42-2.52,11.6-.93,23.34-1.19,35l-1.54.53,0,0c0-4.76,0-9.52,0-14.28L53.49,55l42.75-.48-.08-2.43q-19.45,0-38.91,0c-2,0-3.67.5-3.68,3-3,1.56-2.54,4.47-2.59,7.09-.11,6.27-.11,12.54-.16,18.82l-3.73.14c-.18-6.09-.35-12.18-.56-18.27-.05-1.34-.1-3.09-1.81-3.13s-1.79,1.74-1.83,3c-.17,5.19-.26,10.39-.38,15.58-7.4.76-14.81,1.46-22.2,2.35a2.85,2.85,0,0,0-2.32,3l-1.38.17C10.07,79.76,4.76,79.88,1.09,84.15ZM74.9,18.08a13,13,0,0,0-11.17-1C52.18,21,41.12,26.27,32.81,35.48,24.17,45,18,56.08,16.67,69.25c-.16,1.62-.84,4.27,1.59,4.55,2.61.29,2.11-2.44,2.36-4.07,2-12.49,7.12-23.3,16.33-32.15C47.62,27.32,60,20.54,74.9,18.08Zm9,.16c31.86,5.46,49.44,25.09,56,55.89C145.88,49,113.1,13.88,83.89,18.24ZM58.66,46.73c12.85,0,24.4,0,36,0,1.6,0,3.51-.21,3.25-2.44-.21-1.82-2-1.4-3.31-1.55A192.6,192.6,0,0,0,67.92,41.6C64.73,41.69,61.48,41.68,58.66,46.73Z"/><path class="cls-2" d="M142.44,85.11l15,.12c-2.38,28.5-16,50-41.15,63.46-36.37,19.45-79.93,8-102.88-26.22A71.06,71.06,0,0,1,1.09,84.15c3.67-4.27,9-4.39,15.52-.33.8,20.32,10.5,35.63,26.74,47.16a63.52,63.52,0,0,0,28.42,10.87c1.33.18,2.89.79,3.17-1.22.17-1.29-1-1.93-2.14-2.27a24.93,24.93,0,0,0-3.31-.8C53.26,135.19,41,126.72,31,113.89c-7-9.07-8.32-20.33-13-30.24a2.85,2.85,0,0,1,2.32-3c7.39-.89,14.8-1.59,22.2-2.35.07,4.91,0,9.82.26,14.72.08,1.83-1,4.85,1.55,5.16,3.58.44,1.79-3.22,2.66-4.94a7.76,7.76,0,0,0,.1-8V81.11L50.82,81c0,4.27-.09,8.55.19,12.81.25,3.64-1.34,7.81,2.54,10.6l0,0c1.3,3,4,2.56,6.46,2.57,11.87,0,23.75.09,35.62.07,9.82,0,10.61-.81,11.68-10.84.14-.13.41-.28.4-.39a5.28,5.28,0,0,0-.32-1l-.09-6.68L112,88c.12,2.48.2,5,.36,7.43.08,1.3-.11,3,1.73,3.14,2.42.18,2.14-1.82,2.18-3.33.1-3.84.1-7.68.14-11.52,7.31.71,14.58,2.06,22,1.49-4.28,30.83-24.08,47.2-52.76,55.28C110.82,141.24,140.26,116.56,142.44,85.11Zm-83,28,.06,2.13q17.91,0,35.83,0c1.14,0,2.62-.12,2.59-1.51,0-2.26-2-2.07-3.57-2.06-8.63.1-17.27.23-25.9.45C65.46,112.21,62.27,111.47,59.48,113.13Z"/><path class="cls-3" d="M18,83.65c4.71,9.91,6,21.17,13,30.24,10,12.83,22.24,21.3,38.47,23.67a24.93,24.93,0,0,1,3.31.8c1.13.34,2.31,1,2.14,2.27-.28,2-1.84,1.4-3.17,1.22A63.52,63.52,0,0,1,43.35,131c-16.24-11.53-25.94-26.84-26.74-47.16Z"/><path class="cls-3" d="M74.9,18.08C60,20.54,47.62,27.32,37,37.58c-9.21,8.85-14.36,19.66-16.33,32.15-.25,1.63.25,4.36-2.36,4.07-2.43-.28-1.75-2.93-1.59-4.55C18,56.08,24.17,45,32.81,35.48,41.12,26.27,52.18,21,63.73,17.09A13,13,0,0,1,74.9,18.08Z"/><path class="cls-3" d="M142.44,85.11c-2.18,31.45-31.62,56.13-56.78,55.33,28.68-8.08,48.48-24.45,52.76-55.28C139.71,81.66,141.08,83.65,142.44,85.11Z"/><path class="cls-3" d="M83.89,18.24c29.21-4.36,62,30.78,56,55.89C133.33,43.33,115.75,23.7,83.89,18.24Z"/><path class="cls-3" d="M107.27,96.14c-1.07,10-1.86,10.81-11.68,10.84-11.87,0-23.75,0-35.62-.07-2.49,0-5.16.43-6.46-2.57l1.54-.53c14.25.16,28.5.37,42.75.47,4.46,0,6.55-2.41,6.48-6.84s-.06-9-.09-13.57c-.3-9.67,2.18-19.51-1.74-29-.21-.51-.13-1.66.07-1.72A3.61,3.61,0,0,1,105,53c2.52,1.34,3.09,3.77,3,6.41q-.37,14.34-.77,28.68l.09,6.68C107.32,95.21,107.3,95.68,107.27,96.14Z"/><path class="cls-2" d="M104.19,83.87c0,4.52,0,9,.09,13.57s-2,6.87-6.48,6.84c-14.25-.1-28.5-.31-42.75-.47.26-11.67-1.33-23.41,1.19-35q.59,14,1.18,28v0l-.24,3.67L57,101l.6.24c12.66.12,25.33.19,38,.39,3.44,0,5-1.35,4.84-4.82a56.12,56.12,0,0,1,.44-6C104.43,89.67,101.71,85.51,104.19,83.87Z"/><path class="cls-3" d="M58.66,46.73c2.82-5,6.07-5,9.26-5.13a192.6,192.6,0,0,1,26.63,1.12c1.28.15,3.1-.27,3.31,1.55.26,2.23-1.65,2.44-3.25,2.44C83.06,46.75,71.51,46.73,58.66,46.73Z"/><path class="cls-3" d="M47,93.28c-.87,1.72.92,5.38-2.66,4.94-2.55-.31-1.47-3.33-1.55-5.16-.22-4.9-.19-9.81-.26-14.72.12-5.19.21-10.39.38-15.58,0-1.31,0-3.09,1.83-3s1.76,1.79,1.81,3.13c.21,6.09.38,12.18.56,18.27,0,1.39,0,2.78,0,4.17C47.05,87.94,47,90.61,47,93.28Z"/><path class="cls-3" d="M116.43,83.67c0,3.84,0,7.68-.14,11.52,0,1.51.24,3.51-2.18,3.33-1.84-.14-1.65-1.84-1.73-3.14-.16-2.47-.24-4.95-.36-7.43.12-7.68.22-15.37.4-23,0-1.94-.34-4.85,2.33-4.77,2.32.07,1.48,2.91,1.52,4.54C116.43,71,116.39,77.33,116.43,83.67Z"/><path class="cls-3" d="M53.55,104.38c-3.88-2.79-2.29-7-2.54-10.6-.28-4.26-.14-8.54-.19-12.81,0-6.28,0-12.55.16-18.82.05-2.62-.46-5.53,2.59-7.09L53.48,55q0,17.57.07,35.13C53.56,94.86,53.55,99.62,53.55,104.38Z"/><path class="cls-3" d="M53.57,55.06c0-2.49,1.7-3,3.68-3q19.45,0,38.91,0l.08,2.43L53.49,55Z"/><path class="cls-3" d="M59.48,113.13c2.79-1.66,6-.92,9-1,8.63-.22,17.27-.35,25.9-.45,1.52,0,3.53-.2,3.57,2.06,0,1.39-1.45,1.51-2.59,1.51q-17.93,0-35.83,0Z"/><path class="cls-1" d="M47,93.28c0-2.67.07-5.34.1-8A7.76,7.76,0,0,1,47,93.28Z"/><path class="cls-1" d="M107.27,96.14c0-.46,0-.93.08-1.39a5.28,5.28,0,0,1,.32,1C107.68,95.86,107.41,96,107.27,96.14Z"/><polygon class="cls-1" points="57.42 96.77 57.42 96.82 57.97 96.82 57.42 96.77"/><path class="cls-1" d="M57.56,101.26,57,101l.22-.58A1.23,1.23,0,0,1,57.56,101.26Z"/></g></g></svg>