<svg xmlns="http://www.w3.org/2000/svg" viewBox="0 0 303.27 299.11"><defs><style>.cls-1{fill:#c25156;}.cls-2{fill:#692227;}.cls-3{fill:#fff;}</style></defs><g id="레이어_2" data-name="레이어 2"><g id="Layer_1" data-name="Layer 1"><path class="cls-1" d="M0,162.78V142c1.14-2.39.79-5,1.13-7.53,5.43-40.23,23-74.11,54.6-99.47C101.83-2,153.47-9.72,208.06,12.07c48.29,19.27,78.2,56,91.14,106.5a123.66,123.66,0,0,1,3.16,20.17c.8,9.36,1.47,18.68.22,28a51.45,51.45,0,0,1-2.3,11.06c-2.14,4.31-3,9.1-5.2,13.42-2.74,5.45-4.92,11.18-8.19,16.36a196.44,196.44,0,0,1-19.48,26.27c-1.09,1.22-1.65,2.86-3,4-4.81,4-9.06,8.71-14.1,12.5s-9.44,8-14.65,11.26a167.56,167.56,0,0,1-22.2,12,162.43,162.43,0,0,1-40.59,11.16,152.94,152.94,0,0,1-38.89.53,141.61,141.61,0,0,1-26-5c-9-2.75-17.5-7-25.95-11.27A151.44,151.44,0,0,1,36.66,233.4a161.7,161.7,0,0,1-24.24-35.62c-4.28-8.5-6.91-17.66-9.27-26.89-.6-2.37-.62-5.1-2.6-7ZM212.65,264.26c4.06,0,7.61-1.65,11.17-3.38a48.72,48.72,0,0,0,21.87-20.44c1.82-3.27,3.2-7.19,1-10.39-2.34-3.44-6.51-2.61-10.11-1.76-12.18,2.88-20.86,10.63-28,20.44a16.73,16.73,0,0,0-2.8,7.43C204.88,261.58,207.2,264.25,212.65,264.26ZM60.42,62.27c-.09,5,3.18,8,8.43,6.8,15.46-3.45,26.4-12.59,32.26-27.43,1.75-4.44-1.1-8-5.88-8.26a17.45,17.45,0,0,0-6.68,1C78.86,37.84,71.37,44.28,65,52.11,62.51,55.1,60.29,58.28,60.42,62.27Zm61-28.65a6.56,6.56,0,0,0-6.6-6.81c-4.25-.13-7.32,2.88-7.52,7.35-.16,3.63,3,6.58,7.13,6.63S121.28,37.87,121.39,33.62Zm68.88,236.83c3.95.15,6.58-2.71,6.73-7.34.11-3.43-3.05-6.22-7.18-6.34a6.17,6.17,0,0,0-6.69,6.15C183,267.59,185.49,270.27,190.27,270.45Z"/><path class="cls-2" d="M138.68,299.11c-3-1.28-6.28-1.15-9.43-1.62A149.87,149.87,0,0,1,63.89,271.4C32.46,249.08,12.06,219.12,3,181.48c-1.41-5.9-2.61-11.87-2.44-18,2,1.91,2,4.64,2.61,7,2.36,9.23,5,18.39,9.27,26.88A161.38,161.38,0,0,0,36.71,233,158.8,158.8,0,0,0,55.17,251a156.94,156.94,0,0,0,26.88,17.61c8.45,4.27,16.93,8.51,26,11.27a141.59,141.59,0,0,0,26.05,5,152,152,0,0,0,38.89-.53,162.3,162.3,0,0,0,40.59-11.15,168.73,168.73,0,0,0,22.2-12c5.21-3.22,9.73-7.56,14.65-11.27s9.3-8.45,14.1-12.49c1.33-1.13,1.89-2.77,3-4a196,196,0,0,0,19.47-26.27c3.27-5.17,5.45-10.91,8.19-16.35,2.18-4.32,5.36-20.17,7.5-24.48.49,1.94-2.56,14.8-3.07,16.57q-27.21,94.53-123.3,114.2c-4.21.85-8.56.72-12.69,2Z"/><path class="cls-3" d="M211.53,264.26c-5.44,0-7.77-2.68-6.89-8.1a16.85,16.85,0,0,1,2.8-7.43c7.17-9.81,15.86-17.56,28-20.44,3.6-.85,7.77-1.68,10.12,1.76,2.19,3.2.81,7.12-1,10.39a48.72,48.72,0,0,1-21.87,20.44C219.15,262.61,215.59,264.25,211.53,264.26Z"/><path class="cls-3" d="M59.3,62.27c-.12-4,2.09-7.17,4.54-10.16,6.42-7.83,13.9-14.27,23.59-17.73a17.45,17.45,0,0,1,6.68-1c4.78.21,7.63,3.82,5.88,8.26-5.86,14.84-16.8,24-32.26,27.43C62.49,70.24,59.21,67.31,59.3,62.27Z"/><path class="cls-3" d="M120.28,33.62c-.11,4.25-3,7.22-7,7.17s-7.29-3-7.13-6.63c.2-4.47,3.28-7.48,7.53-7.35A6.56,6.56,0,0,1,120.28,33.62Z"/><path class="cls-3" d="M189.15,270.45c-4.78-.18-7.32-2.86-7.14-7.53a6.18,6.18,0,0,1,6.69-6.15c4.13.12,7.3,2.91,7.18,6.34C195.73,267.74,193.11,270.6,189.15,270.45Z"/><path class="cls-3" d="M115.07,121.73h-.19l.09-.23Z"/><path class="cls-3" d="M243,132.45a10.26,10.26,0,0,1-10.16,10.19H222.69l.22,50.85a22,22,0,0,1-.16,2.57v5.12a12.69,12.69,0,0,1-12.7,12.69H205c-.35,0-.69,0-1,0s-.89,0-1.34,0H184.66A12.69,12.69,0,0,1,172,201.18V173.24a10.15,10.15,0,0,0-10.16-10.16H141.49a10.15,10.15,0,0,0-10.16,10.16v27.94a12.69,12.69,0,0,1-12.7,12.69H100.89c-.48,0-1,0-1.43-.06s-.76.06-1.14.06H93.24a12.69,12.69,0,0,1-12.7-12.69V165.62c0-.28,0-.6,0-.89V142.64H70.38a10,10,0,0,1-10.16-10.19,10.33,10.33,0,0,1,3.18-7.62l81.39-70.94a9.12,9.12,0,0,1,7-2.54,10.55,10.55,0,0,1,6.67,2.22l81.07,71.26C242.05,127.05,243.32,129.59,243,132.45Z"/></g></g></svg>