<svg xmlns="http://www.w3.org/2000/svg" viewBox="0 0 88.84 88.9"><defs><style>.cls-1{fill:#fff;}.cls-2{fill:#ca89a5;}</style></defs><g id="레이어_2" data-name="레이어 2"><g id="Layer_1" data-name="Layer 1"><path class="cls-1" d="M44.39,74a5.41,5.41,0,0,1-3.86-1.77q-4.61-4.62-9.23-9.21c-7.57-7.54-15.41-15.34-23-23.12A22.33,22.33,0,0,1,2.83,16.41C5.6,8,11.86,2.51,20.94.67A18.22,18.22,0,0,1,24.49.34h.61A23,23,0,0,1,41.48,7.18c.92.91,1.92,1.89,2.92,2.91,1.21-1.25,2.46-2.51,3.78-3.7A22.81,22.81,0,0,1,63.76,0a24.53,24.53,0,0,1,7.79,1.33C80,4.18,85.37,10.37,87,19.26A22.22,22.22,0,0,1,80.77,39.7c-7.85,8-15.89,16-23.67,23.75q-4.43,4.39-8.83,8.81A5.42,5.42,0,0,1,44.39,74Z"/><path class="cls-2" d="M25,4.06A19.33,19.33,0,0,1,38.87,9.82c1.66,1.65,3.32,3.29,4.94,5,.5.52.76.45,1.22,0,1.86-1.9,3.68-3.85,5.65-5.64C56.4,4,63.07,2.4,70.37,4.86s11.6,7.6,13,15.08a18.52,18.52,0,0,1-5.25,17.15C67.36,48,56.48,58.79,45.64,69.63c-.92.91-1.58.91-2.48,0C32.4,58.88,21.58,48.2,10.93,37.34,5.48,31.77,4,25,6.37,17.57S14.09,5.86,21.68,4.32A14.74,14.74,0,0,1,25,4.06Z"/><path class="cls-1" d="M44.94,88.9h-2c-10.72-.2-19.37-1.41-27.23-3.8a33.34,33.34,0,0,1-10.46-5,14.58,14.58,0,0,1-3.42-3.52A9.83,9.83,0,0,1,2,65a16.84,16.84,0,0,1,5.16-4.58,46.58,46.58,0,0,1,14-5.18c1.3-.3,2.61-.54,3.93-.78l.17,0a3.14,3.14,0,0,1,1-.09,7.63,7.63,0,0,1,5.07,4.18c1.27,2.55-1.32,5.41-4.2,5.95a64.6,64.6,0,0,0-10.25,2.63A24.06,24.06,0,0,0,12,69.41a8,8,0,0,0-1.32,1,2.8,2.8,0,0,0-.38.45,2.93,2.93,0,0,0,.38.42,14.66,14.66,0,0,0,4.65,2.76,59.32,59.32,0,0,0,13.94,3.58c2.38.36,4.91.62,7.52.79,2.16.14,4.36.26,5.79.26h.62c10.35,0,18.07-.93,25.16-2.87a30,30,0,0,0,8.37-3.42,6.73,6.73,0,0,0,1.73-1.45l.06-.08a.35.35,0,0,0,0-.08,7.74,7.74,0,0,0-2.63-2,45.52,45.52,0,0,0-13.07-4.16l-.35-.06-.75-.14c-3-.64-5.28-3.43-4.13-6.09a7.49,7.49,0,0,1,5.06-4.06,2.76,2.76,0,0,1,1.06.09,69.79,69.79,0,0,1,11.45,3,29.8,29.8,0,0,1,9.13,4.91,15.5,15.5,0,0,1,2,1.93,10,10,0,0,1-.11,13.65,22.51,22.51,0,0,1-8.65,5.74,65,65,0,0,1-15.6,4.07A113.2,113.2,0,0,1,44.94,88.9Z"/><path class="cls-2" d="M43.34,82.4c9.52,0,17.85-.77,26-3a34.33,34.33,0,0,0,9.36-3.86,10.5,10.5,0,0,0,2.65-2.27,3.48,3.48,0,0,0,.08-4.73,11.27,11.27,0,0,0-3.83-3A48.85,48.85,0,0,0,63.48,61c-.34-.07-.69-.11-1-.19A1.41,1.41,0,1,1,63,58a66.46,66.46,0,0,1,10.85,2.79,26,26,0,0,1,8,4.26,12.26,12.26,0,0,1,1.5,1.47,6.27,6.27,0,0,1-.08,8.82A18.88,18.88,0,0,1,76,80.11a62,62,0,0,1-14.72,3.83A108.46,108.46,0,0,1,43,85.17c-8.88-.17-17.68-1-26.22-3.64a29.77,29.77,0,0,1-9.31-4.38A11.21,11.21,0,0,1,4.9,74.53,6.08,6.08,0,0,1,5,67.17a13.32,13.32,0,0,1,4.06-3.56,42.84,42.84,0,0,1,12.86-4.74c1.31-.3,2.63-.54,3.95-.79a1.42,1.42,0,0,1,1.79,1.11,1.39,1.39,0,0,1-1.24,1.62A66.61,66.61,0,0,0,15.58,63.6,27.49,27.49,0,0,0,10,66.29,11.28,11.28,0,0,0,8.05,67.8C6,69.88,6,71.91,8.08,74A18.28,18.28,0,0,0,13.9,77.5a62.52,62.52,0,0,0,14.81,3.81c2.6.4,5.22.67,7.84.83S41.81,82.46,43.34,82.4Z"/></g></g></svg>