<svg xmlns="http://www.w3.org/2000/svg" viewBox="0 0 1337.15 398.53"><defs><style>.cls-1{fill:#e5e5e7;}.cls-2{fill:#0369a1;}</style></defs><g id="레이어_2" data-name="레이어 2"><g id="Layer_1" data-name="Layer 1"><path class="cls-1" d="M294.79,140.21c7.36-21.08-12.65-41.44-33.86-34.46L198,126.47a27,27,0,0,1-24.73-4.14L120.56,82.25c-17.78-13.52-43.33-.78-43.24,21.55L77.58,170A26.9,26.9,0,0,1,66,192.27L11.59,230c-18.35,12.73-14.13,41,7.13,47.78L81.8,298a27,27,0,0,1,17.57,17.89l19.1,63.42c6.44,21.38,34.6,26.09,47.65,8l38.72-53.74a27,27,0,0,1,22.44-11.19l66.22,1.43C315.83,324.32,329,299,315.82,281l-39.15-53.43a27,27,0,0,1-3.7-24.8Zm-34,58.29a39.84,39.84,0,0,0,5.48,36.67l39.14,53.43A13.5,13.5,0,0,1,307.79,300a14.4,14.4,0,0,1-7.34,9.45,14.06,14.06,0,0,1-6.67,1.45l-66.22-1.43a39.8,39.8,0,0,0-33.18,16.54l-38.72,53.74a14.12,14.12,0,0,1-5,4.38,14.4,14.4,0,0,1-12,.28,13.51,13.51,0,0,1-7.78-8.82l-19.1-63.42a39.83,39.83,0,0,0-26-26.45L22.66,265.54a14,14,0,0,1-3.72-24.9l54.42-37.77A39.84,39.84,0,0,0,90.48,170l-.26-66.24a14,14,0,0,1,22.53-11.23l52.74,40.08a39.84,39.84,0,0,0,36.56,6.12L265,118a14,14,0,0,1,17.65,18Z"/><path class="cls-2" d="M279.37,121.5A13.76,13.76,0,0,0,265,118l-62.92,20.72a39.84,39.84,0,0,1-36.56-6.12L112.75,92.52a14,14,0,0,0-22.53,11.23L90.48,170a39.84,39.84,0,0,1-17.12,32.88L18.94,240.64a14,14,0,0,0,3.72,24.9l63.08,20.22a39.83,39.83,0,0,1,26,26.45l19.1,63.42a13.51,13.51,0,0,0,7.78,8.82,14.4,14.4,0,0,0,12-.28,14.12,14.12,0,0,0,5-4.38l38.72-53.74a39.8,39.8,0,0,1,33.18-16.54l66.22,1.43a14.06,14.06,0,0,0,6.67-1.45,14.4,14.4,0,0,0,7.34-9.45,13.5,13.5,0,0,0-2.38-11.44l-39.14-53.43a39.84,39.84,0,0,1-5.48-36.67L282.62,136A13.77,13.77,0,0,0,279.37,121.5Z"/><path class="cls-1" d="M1064.18,202.75a27,27,0,0,1-3.71,24.8L1021.33,281c-13.2,18,0,43.34,22.31,42.85l66.22-1.43a26.92,26.92,0,0,1,22.44,11.19L1171,387.33c13.06,18.11,41.21,13.4,47.65-8l19.11-63.42A26.92,26.92,0,0,1,1255.35,298l63.07-20.22c21.27-6.81,25.48-35,7.14-47.78l-54.42-37.77A26.92,26.92,0,0,1,1259.57,170l.26-66.24c.09-22.33-25.47-35.07-43.24-21.55l-52.74,40.08a26.94,26.94,0,0,1-24.72,4.14l-62.92-20.72c-21.2-7-41.21,13.38-33.86,34.46ZM1054.53,136a14,14,0,0,1,17.65-18l62.92,20.72a39.84,39.84,0,0,0,36.56-6.12l52.73-40.08a14,14,0,0,1,22.54,11.23l-.26,66.24a39.84,39.84,0,0,0,17.12,32.88l54.42,37.77a14,14,0,0,1-3.72,24.9l-63.08,20.22a39.83,39.83,0,0,0-26,26.45l-19.11,63.42a13.5,13.5,0,0,1-7.77,8.82,14.4,14.4,0,0,1-12-.28,14,14,0,0,1-5-4.38l-38.72-53.74a39.84,39.84,0,0,0-33.18-16.54l-66.23,1.43a14,14,0,0,1-6.66-1.45,14.37,14.37,0,0,1-7.34-9.45,13.5,13.5,0,0,1,2.38-11.44l39.14-53.43a39.84,39.84,0,0,0,5.48-36.67Z"/><path class="cls-2" d="M1057.77,121.5a13.78,13.78,0,0,1,14.41-3.5l62.92,20.72a39.84,39.84,0,0,0,36.56-6.12l52.73-40.08a14,14,0,0,1,22.54,11.23l-.26,66.24a39.84,39.84,0,0,0,17.12,32.88l54.42,37.77a14,14,0,0,1-3.72,24.9l-63.08,20.22a39.83,39.83,0,0,0-26,26.45l-19.11,63.42a13.5,13.5,0,0,1-7.77,8.82,14.4,14.4,0,0,1-12-.28,14,14,0,0,1-5-4.38l-38.72-53.74a39.84,39.84,0,0,0-33.18-16.54l-66.23,1.43a14,14,0,0,1-6.66-1.45,14.37,14.37,0,0,1-7.34-9.45,13.5,13.5,0,0,1,2.38-11.44l39.14-53.43a39.84,39.84,0,0,0,5.48-36.67L1054.53,136A13.77,13.77,0,0,1,1057.77,121.5Z"/><path class="cls-1" d="M821.75,151.66c16.7-14.83,9.14-42.36-12.78-46.6l-65-12.55a26.94,26.94,0,0,1-19.58-15.66l-26.53-60.7c-8.94-20.46-37.46-21.78-48.26-2.24l-32,58a27,27,0,0,1-20.95,13.78l-65.92,6.47c-22.22,2.18-32.29,28.9-17,45.21l45.23,48.39a26.88,26.88,0,0,1,6.63,24.17l-14.21,64.7c-4.79,21.81,17.5,39.64,37.73,30.18l60-28.07a26.93,26.93,0,0,1,25,1.17l57.13,33.51c19.26,11.29,43.11-4.4,40.36-26.56l-8.15-65.73a27,27,0,0,1,8.85-23.46ZM763.66,186a39.84,39.84,0,0,0-13.08,34.69l8.15,65.73a13.5,13.5,0,0,1-3.49,11.15,14.43,14.43,0,0,1-11,4.67,14,14,0,0,1-6.52-2l-57.14-33.51a39.83,39.83,0,0,0-37-1.72l-60,28.07a14.06,14.06,0,0,1-6.54,1.37,14.42,14.42,0,0,1-10.63-5.61,13.5,13.5,0,0,1-2.49-11.49l14.21-64.7a39.8,39.8,0,0,0-9.81-35.75L523,128.53A14,14,0,0,1,531.93,105l65.91-6.47a39.83,39.83,0,0,0,31-20.38l32-58A14,14,0,0,1,686,21.32L712.54,82a39.82,39.82,0,0,0,29,23.16l65,12.56A14,14,0,0,1,813.19,142Z"/><path class="cls-2" d="M817.4,127.8a13.77,13.77,0,0,0-10.87-10.07l-65-12.56a39.82,39.82,0,0,1-29-23.16L686,21.32a14,14,0,0,0-25.15-1.17l-32,58a39.83,39.83,0,0,1-31,20.38L531.93,105A14,14,0,0,0,523,128.53l45.23,48.39a39.8,39.8,0,0,1,9.81,35.75l-14.21,64.7a13.5,13.5,0,0,0,2.49,11.49A14.42,14.42,0,0,0,577,294.47a14.06,14.06,0,0,0,6.54-1.37l60-28.07a39.83,39.83,0,0,1,37,1.72l57.14,33.51a14,14,0,0,0,6.52,2,14.43,14.43,0,0,0,11-4.67,13.5,13.5,0,0,0,3.49-11.15l-8.15-65.73A39.84,39.84,0,0,1,763.66,186l49.53-44A13.77,13.77,0,0,0,817.4,127.8Z"/></g></g></svg>